<?xml version="1.0" encoding="utf-8"?>
<!-- Generator: Adobe Illustrator 23.1.0, SVG Export Plug-In . SVG Version: 6.00 Build 0)  -->
<svg version="1.1" id="Capa_1" xmlns="http://www.w3.org/2000/svg" xmlns:xlink="http://www.w3.org/1999/xlink" x="0px" y="0px"
	 viewBox="0 0 512 512" style="enable-background:new 0 0 512 512;" xml:space="preserve">
<style type="text/css">
	.st0{fill:#FFFFFF;}
</style>
<g>
	<path class="st0" d="M270.83,267.95c-10.07-7.34-25.28-18.41-25.47-22.66c0-6.04,13.78-19.71,24.85-30.68
		c25.52-25.32,60.48-59.99,60.48-107.95c0.57-35.74-19.04-68.75-50.71-85.33h50.71c5.89,0,10.67-4.78,10.67-10.67S336.58,0,330.69,0
		H192.02c-9.24,0.03-18.46,0.89-27.54,2.56C206.96-5.91,251.57,32,264.56,88.6l0,0c13.29,57.32-10.88,111.94-53.87,121.96
		c-4.49,1.03-9.07,1.56-13.68,1.56c-38.63,0-76.44-36.27-88.3-87.47C95.64,67.9,119.38,13.89,161.45,3.18
		C99.52,12.34,53.58,65.39,53.36,128c0,73.41,68.67,99.82,118.1,105.45c-10.97,20.71-10.58,45.59,1.02,65.94
		C107.52,303.98,10.69,332.08,10.69,416c-0.76,22.6,7.87,44.5,23.85,60.5C67.76,509.25,126.06,512,156.5,512c3.65,0,6.87,0,9.6,0
		h4.59c1.81,0,181.33-3.18,181.33-117.33C352.02,327.1,303.17,291.52,270.83,267.95z M192.02,490.67
		c-54.12,0-117.33-22.34-117.33-85.33s73.09-106.67,138.67-106.67c1.91,0,3.79,0.52,5.44,1.49c9.28,5.5,90.56,55.21,90.56,105.17
		C309.36,456.32,248.68,490.67,192.02,490.67z"/>
	<path class="st0" d="M426.69,298.67c-5.89,0-10.67-4.78-10.67-10.67V160c0-5.89,4.78-10.67,10.67-10.67s10.67,4.78,10.67,10.67v128
		C437.36,293.89,432.58,298.67,426.69,298.67z"/>
	<path class="st0" d="M490.69,234.67h-128c-5.89,0-10.67-4.78-10.67-10.67s4.78-10.67,10.67-10.67h128
		c5.89,0,10.67,4.78,10.67,10.67C501.36,229.89,496.58,234.67,490.69,234.67z"/>
</g>
</svg>
