<?xml version="1.0" encoding="utf-8"?>
<!-- Generator: Adobe Illustrator 23.1.0, SVG Export Plug-In . SVG Version: 6.00 Build 0)  -->
<svg version="1.1" id="Layer_1" xmlns="http://www.w3.org/2000/svg" xmlns:xlink="http://www.w3.org/1999/xlink" x="0px" y="0px"
	 viewBox="0 0 511 511" style="enable-background:new 0 0 511 511;" xml:space="preserve">
<style type="text/css">
	.st0{fill:#FFFFFF;}
</style>
<path class="st0" d="M510.5,150.24c-1.2-27.15-5.59-45.82-11.88-61.99c-6.49-17.17-16.47-32.54-29.55-45.32
	c-12.78-12.98-28.25-23.06-45.22-29.45C407.58,7.19,389.01,2.8,361.86,1.6C334.51,0.3,325.83,0,256.45,0s-78.06,0.3-105.31,1.5
	c-27.15,1.2-45.82,5.59-61.99,11.88C71.97,19.86,56.6,29.85,43.82,42.92C30.84,55.7,20.76,71.18,14.37,88.15
	C8.08,104.42,3.69,122.98,2.5,150.13c-1.3,27.35-1.6,36.04-1.6,105.42s0.3,78.06,1.5,105.31c1.2,27.15,5.59,45.82,11.88,61.99
	c6.49,17.17,16.57,32.54,29.55,45.32c12.78,12.98,28.25,23.06,45.22,29.45c16.27,6.29,34.84,10.68,61.99,11.88
	c27.25,1.2,35.94,1.5,105.31,1.5s78.06-0.3,105.31-1.5c27.15-1.2,45.82-5.59,61.99-11.88c34.34-13.28,61.49-40.43,74.77-74.77
	c6.29-16.27,10.68-34.84,11.88-61.99c1.2-27.25,1.5-35.94,1.5-105.31S511.7,177.49,510.5,150.24z M464.48,358.87
	c-1.1,24.96-5.29,38.43-8.79,47.42c-8.59,22.26-26.25,39.93-48.52,48.52c-8.98,3.49-22.56,7.69-47.42,8.78
	c-26.95,1.2-35.04,1.5-103.22,1.5s-76.37-0.3-103.22-1.5c-24.96-1.1-38.43-5.29-47.42-8.78c-11.08-4.09-21.16-10.58-29.35-19.07
	c-8.49-8.29-14.97-18.27-19.07-29.35c-3.49-8.98-7.69-22.56-8.78-47.42c-1.2-26.95-1.5-35.04-1.5-103.22s0.3-76.37,1.5-103.22
	c1.1-24.96,5.29-38.43,8.78-47.42c4.09-11.08,10.58-21.16,19.17-29.35c8.28-8.49,18.26-14.97,29.35-19.06
	c8.98-3.49,22.56-7.69,47.42-8.79c26.95-1.2,35.04-1.5,103.22-1.5c68.28,0,76.37,0.3,103.22,1.5c24.96,1.1,38.43,5.29,47.42,8.79
	c11.08,4.09,21.16,10.58,29.35,19.06c8.49,8.29,14.97,18.27,19.07,29.35c3.49,8.98,7.69,22.56,8.79,47.42
	c1.2,26.95,1.5,35.04,1.5,103.22S465.68,331.92,464.48,358.87z"/>
<path class="st0" d="M256.45,124.28c-72.47,0-131.27,58.79-131.27,131.27s58.8,131.27,131.27,131.27
	c72.47,0,131.27-58.79,131.27-131.27S328.92,124.28,256.45,124.28z M256.45,340.7c-47.01,0-85.15-38.13-85.15-85.15
	s38.14-85.15,85.15-85.15c47.02,0,85.15,38.13,85.15,85.15S303.47,340.7,256.45,340.7z"/>
<path class="st0" d="M423.56,119.09c0,16.92-13.72,30.65-30.65,30.65c-16.92,0-30.65-13.72-30.65-30.65
	c0-16.93,13.72-30.65,30.65-30.65C409.83,88.45,423.56,102.16,423.56,119.09z"/>
</svg>
