<?xml version="1.0" encoding="utf-8"?>
<!-- Generator: Adobe Illustrator 23.1.0, SVG Export Plug-In . SVG Version: 6.00 Build 0)  -->
<svg version="1.1" id="Capa_1" xmlns="http://www.w3.org/2000/svg" xmlns:xlink="http://www.w3.org/1999/xlink" x="0px" y="0px"
	 viewBox="0 0 296.53 296.53" style="enable-background:new 0 0 296.53 296.53;" xml:space="preserve">
<style type="text/css">
	.st0{fill:#FFFFFF;}
</style>
<g>
	<path class="st0" d="M295.84,115.35L295.84,115.35l-0.09-0.76c0-0.01,0-0.02,0-0.04c0-0.01,0-0.02,0-0.03l-0.34-2.86
		c-0.07-0.57-0.15-1.23-0.24-1.97l-0.07-0.59l-0.15,0.02c-3.62-20.57-13.55-40.09-28.94-56.76c-15.32-16.59-35.22-29.69-57.55-37.88
		c-19.13-7.02-39.43-10.58-60.34-10.58c-28.22,0-55.63,6.64-79.26,19.19C23.29,47.3-3.59,91.8,0.39,136.46
		c2.06,23.11,11.11,45.11,26.18,63.62c14.19,17.42,33.38,31.48,55.5,40.66c13.6,5.64,27.05,8.3,41.29,11.12l1.67,0.33
		c3.92,0.78,4.98,1.84,5.25,2.26c0.5,0.78,0.24,2.33,0.04,3.18c-0.19,0.79-0.38,1.57-0.57,2.35c-1.53,6.23-3.11,12.68-1.87,19.79
		c1.43,8.17,6.53,12.86,14,12.86c0,0,0,0,0,0c8.04,0,17.18-5.39,23.23-8.96l0.81-0.48c14.44-8.48,28.04-18.04,38.27-25.42
		c22.4-16.16,47.78-34.48,66.82-58.17C290.17,175.74,299.2,145.08,295.84,115.35z M92.34,160.56H66.76c-3.87,0-7-3.13-7-7v-53.7
		c0-3.87,3.13-7,7-7s7,3.13,7,7v46.7h18.58c3.87,0,7,3.13,7,7C99.34,157.43,96.21,160.56,92.34,160.56z M119.03,153.37
		c0,3.87-3.13,7-7,7s-7-3.13-7-7v-53.7c0-3.87,3.13-7,7-7s7,3.13,7,7V153.37z M182.3,153.37c0,3.03-1.95,5.72-4.84,6.66
		c-0.71,0.23-1.44,0.34-2.16,0.34c-2.2,0-4.32-1.04-5.67-2.89l-25.21-34.72v30.6c0,3.87-3.13,7-7,7s-7-3.13-7-7v-52.16
		c0-3.03,1.95-5.72,4.84-6.66c2.89-0.94,6.04,0.09,7.83,2.54l25.21,34.72V99.67c0-3.87,3.13-7,7-7s7,3.13,7,7V153.37z
		 M233.31,159.27h-34.65c-3.87,0-7-3.13-7-7v-26.85V98.57c0-3.87,3.13-7,7-7h33.57c3.87,0,7,3.13,7,7s-3.13,7-7,7h-26.57v12.85
		h21.56c3.87,0,7,3.13,7,7c0,3.87-3.13,7-7,7h-21.56v12.85h27.65c3.87,0,7,3.13,7,7S237.18,159.27,233.31,159.27z"/>
</g>
</svg>
