<?xml version="1.0" encoding="utf-8"?>
<!-- Generator: Adobe Illustrator 23.1.0, SVG Export Plug-In . SVG Version: 6.00 Build 0)  -->
<svg version="1.1" id="Layer_1" xmlns="http://www.w3.org/2000/svg" xmlns:xlink="http://www.w3.org/1999/xlink" x="0px" y="0px"
	 viewBox="0 0 49.17 67.32" style="enable-background:new 0 0 49.17 67.32;" xml:space="preserve">
<style type="text/css">
	.st0{fill:#FFFFFF;}
</style>
<title>Asset 66</title>
<g>
	<g id="Layer_1-2">
		<path class="st0" d="M36.85,27.46V14.71c-0.2-7.36-6.34-13.17-13.7-12.97c-7.08,0.19-12.78,5.89-12.97,12.97v12.75
			c-9.2,7.36-10.69,20.79-3.33,30s20.79,10.69,30,3.33c9.2-7.36,10.69-20.79,3.33-30C39.19,29.56,38.08,28.45,36.85,27.46z
			 M23.51,6.71c4.42,0,8,3.58,8,8v9.67c-5.14-2.03-10.86-2.03-16,0v-9.67C15.51,10.29,19.09,6.71,23.51,6.71z M26.18,59.81v-8.5
			c2.56-1.47,3.43-4.74,1.96-7.29c-1.47-2.56-4.74-3.43-7.29-1.96c-2.56,1.47-3.43,4.74-1.96,7.29c0.47,0.82,1.15,1.49,1.96,1.96
			v8.5c-8.71-1.49-14.57-9.76-13.08-18.47c0.72-4.21,3.1-7.96,6.6-10.41c5.51-3.77,12.77-3.77,18.28,0c7.24,5.07,9,15.04,3.94,22.28
			C34.14,56.72,30.39,59.09,26.18,59.81z"/>
	</g>
</g>
</svg>
