<?xml version="1.0" encoding="utf-8"?>
<!-- Generator: Adobe Illustrator 23.1.0, SVG Export Plug-In . SVG Version: 6.00 Build 0)  -->
<svg version="1.1" id="Layer_1" xmlns="http://www.w3.org/2000/svg" xmlns:xlink="http://www.w3.org/1999/xlink" x="0px" y="0px"
	 viewBox="0 0 311 340" style="enable-background:new 0 0 311 340;" xml:space="preserve">
<style type="text/css">
	.st0{fill:#FFFFFF;}
</style>
<g>
	<g>
		<path class="st0" d="M156.17,211.35c-52.8,0-95.8-43-95.8-95.8s43-95.8,95.8-95.8s95.8,43,95.8,95.8S208.97,211.35,156.17,211.35z
			 M156.17,47.05c-37.7,0-68.4,30.7-68.4,68.4s30.7,68.4,68.4,68.4s68.4-30.7,68.4-68.4S193.87,47.05,156.17,47.05z"/>
	</g>
	<g>
		<path class="st0" d="M293.07,320.85h-27.4c0-60.4-49.1-109.5-109.5-109.5s-109.5,49.1-109.5,109.5h-27.4
			c0-75.5,61.4-136.9,136.9-136.9S293.07,245.35,293.07,320.85z"/>
	</g>
</g>
</svg>
