<?xml version="1.0" encoding="utf-8"?>
<!-- Generator: Adobe Illustrator 23.1.0, SVG Export Plug-In . SVG Version: 6.00 Build 0)  -->
<svg version="1.1" id="Layer_1" xmlns="http://www.w3.org/2000/svg" xmlns:xlink="http://www.w3.org/1999/xlink" x="0px" y="0px"
	 viewBox="0 0 682 682" style="enable-background:new 0 0 682 682;" xml:space="preserve">
<style type="text/css">
	.st0{fill-rule:evenodd;clip-rule:evenodd;fill:#FFFFFF;}
</style>
<path class="st0" d="M567.17,113.9C507.35,54.01,427.8,21.01,343.05,20.98c-174.63,0-316.76,142.12-316.83,316.8
	c-0.02,55.84,14.56,110.35,42.29,158.4L23.56,660.35l167.96-44.06c46.28,25.24,98.38,38.55,151.4,38.56h0.13
	c174.61,0,316.76-142.13,316.82-316.82C659.91,253.38,626.99,173.78,567.17,113.9z M343.05,601.35h-0.11
	c-47.25-0.02-93.59-12.72-134.03-36.71l-9.61-5.71l-99.67,26.15l26.6-97.17l-6.26-9.96c-26.36-41.93-40.28-90.39-40.26-140.14
	C79.77,192.61,197.9,74.49,343.15,74.49c70.34,0.02,136.46,27.45,186.17,77.23s77.08,115.94,77.06,186.3
	C606.32,483.22,488.2,601.35,343.05,601.35z M487.49,404.13c-7.91-3.96-46.84-23.11-54.1-25.76c-7.25-2.64-12.53-3.96-17.81,3.96
	c-5.28,7.92-20.45,25.76-25.07,31.04c-4.62,5.28-9.23,5.95-17.15,1.98c-7.92-3.96-33.42-12.32-63.66-39.29
	c-23.53-20.99-39.42-46.92-44.04-54.84c-4.61-7.93-0.04-11.8,3.47-16.16c8.57-10.64,17.15-21.8,19.79-27.08
	c2.64-5.28,1.32-9.91-0.66-13.87c-1.97-3.96-17.81-42.93-24.4-58.78c-6.43-15.43-12.95-13.35-17.81-13.59
	c-4.61-0.23-9.89-0.28-15.17-0.28c-5.28,0-13.85,1.98-21.11,9.91c-7.25,7.93-27.7,27.08-27.7,66.04s28.37,76.61,32.32,81.89
	c3.96,5.28,55.82,85.24,135.24,119.53c18.89,8.16,33.63,13.03,45.13,16.68c18.97,6.03,36.22,5.17,49.86,3.14
	c15.21-2.28,46.83-19.15,53.44-37.64c6.6-18.49,6.6-34.34,4.61-37.65C500.69,410.07,495.41,408.09,487.49,404.13z"/>
</svg>
