<?xml version="1.0" encoding="utf-8"?>
<!-- Generator: Adobe Illustrator 23.1.0, SVG Export Plug-In . SVG Version: 6.00 Build 0)  -->
<svg version="1.1" id="Capa_1" xmlns="http://www.w3.org/2000/svg" xmlns:xlink="http://www.w3.org/1999/xlink" x="0px" y="0px"
	 viewBox="0 0 96.98 96.98" style="enable-background:new 0 0 96.98 96.98;" xml:space="preserve">
<style type="text/css">
	.st0{fill:#FFFFFF;}
</style>
<g>
	<g>
		<path class="st0" d="M49.16,51.83L37.69,85.15c3.42,1,7.05,1.56,10.8,1.56c4.45,0,8.72-0.77,12.69-2.17
			c-0.1-0.16-0.19-0.34-0.27-0.53L49.16,51.83z"/>
		<path class="st0" d="M10.27,48.49c0,15.13,8.79,28.2,21.54,34.4L13.58,32.94C11.46,37.69,10.27,42.95,10.27,48.49z"/>
		<path class="st0" d="M74.29,46.56c0-4.72-1.69-7.99-3.15-10.54c-1.94-3.15-3.75-5.81-3.75-8.96c0-3.51,2.66-6.78,6.42-6.78
			c0.17,0,0.33,0.02,0.5,0.03c-6.8-6.23-15.86-10.03-25.81-10.03c-13.35,0-25.1,6.85-31.93,17.23c0.9,0.03,1.74,0.05,2.46,0.05
			c4,0,10.19-0.49,10.19-0.49c2.06-0.12,2.3,2.9,0.25,3.15c0,0-2.07,0.24-4.37,0.36l13.91,41.4l8.36-25.08L41.4,30.57
			c-2.06-0.12-4.01-0.36-4.01-0.36c-2.06-0.12-1.82-3.27,0.24-3.15c0,0,6.31,0.49,10.07,0.49c4,0,10.19-0.49,10.19-0.49
			c2.06-0.12,2.3,2.9,0.24,3.15c0,0-2.07,0.24-4.37,0.36l13.81,41.08l3.81-12.74C73.03,53.63,74.29,49.83,74.29,46.56z"/>
		<path class="st0" d="M82.03,30.15c0.16,1.22,0.26,2.53,0.26,3.93c0,3.88-0.72,8.24-2.9,13.69L67.7,81.52
			c11.36-6.63,19.01-18.94,19.01-33.03C86.71,41.84,85.01,35.6,82.03,30.15z"/>
		<path class="st0" d="M48.49,0C21.71,0,0,21.71,0,48.49s21.71,48.49,48.49,48.49s48.49-21.71,48.49-48.49S75.27,0,48.49,0z
			 M48.49,91C25.05,91,5.99,71.93,5.99,48.49c0-23.44,19.07-42.51,42.51-42.51c23.44,0,42.5,19.07,42.5,42.51
			C91,71.93,71.93,91,48.49,91z"/>
	</g>
</g>
</svg>
