<?xml version="1.0" encoding="utf-8"?>
<!-- Generator: Adobe Illustrator 23.1.0, SVG Export Plug-In . SVG Version: 6.00 Build 0)  -->
<svg version="1.1" id="Capa_1" xmlns="http://www.w3.org/2000/svg" xmlns:xlink="http://www.w3.org/1999/xlink" x="0px" y="0px"
	 viewBox="0 0 18.88 18.88" style="enable-background:new 0 0 18.88 18.88;" xml:space="preserve">
<style type="text/css">
	.st0{fill:#FFFFFF;}
</style>
<g>
	<path class="st0" d="M17.94,10.88v5.56c0,0.35-0.07,0.67-0.22,0.96c-0.15,0.29-0.35,0.55-0.6,0.77c-0.25,0.22-0.55,0.39-0.88,0.52
		c-0.34,0.13-0.69,0.19-1.08,0.19H3.78c-0.38,0-0.74-0.06-1.07-0.19c-0.33-0.13-0.63-0.3-0.88-0.52c-0.25-0.22-0.46-0.48-0.6-0.77
		C1.07,17.11,1,16.79,1,16.44v-5.56c0-0.33,0.07-0.64,0.22-0.94c0.15-0.3,0.35-0.56,0.6-0.77c0.25-0.22,0.55-0.39,0.88-0.52
		s0.69-0.2,1.07-0.2h11.37c0.38,0,0.74,0.07,1.08,0.2c0.34,0.13,0.63,0.31,0.89,0.52c0.25,0.22,0.45,0.47,0.6,0.77
		S17.94,10.55,17.94,10.88z M4.54,17.06v-5.87h1.39v-0.89H2.17v0.86h1.21v5.89H4.54z M5.11,3.41L3.55,0H4.9l0.78,2.55L6.45,0h1.36
		L6.35,3.41v3.97H5.11V3.41z M8.77,12.06H7.61v3.13c0,0.23,0,0.4,0.01,0.52c0.01,0.12-0.01,0.2-0.05,0.23
		c-0.03,0.14-0.13,0.23-0.3,0.3c-0.16,0.06-0.29-0.03-0.37-0.27c-0.02-0.03-0.02-0.12-0.01-0.25c0.01-0.13,0.01-0.3,0.01-0.52
		l-0.02-3.16H5.7l0.03,3.11c0,0.24-0.01,0.45-0.01,0.61s-0.01,0.29,0.01,0.37c0.02,0.14,0.03,0.28,0.05,0.44
		c0.02,0.15,0.1,0.28,0.24,0.37c0.14,0.08,0.29,0.13,0.47,0.13c0.18,0,0.36-0.03,0.53-0.09c0.18-0.06,0.33-0.14,0.48-0.24
		c0.15-0.1,0.26-0.22,0.32-0.34l-0.02,0.62l0.96,0.02V12.06z M7.71,3.93c0-0.46,0.05-0.85,0.13-1.15c0.1-0.31,0.27-0.54,0.5-0.67
		C8.56,1.94,8.85,1.85,9.2,1.85C9.52,1.85,9.78,1.9,9.99,2c0.21,0.09,0.38,0.23,0.52,0.44c0.1,0.15,0.18,0.33,0.23,0.52
		c0.05,0.21,0.07,0.49,0.07,0.85v1.33c0,0.48-0.03,0.83-0.07,1.04c-0.02,0.19-0.1,0.41-0.26,0.65c-0.15,0.21-0.31,0.35-0.49,0.42
		C9.78,7.35,9.54,7.4,9.27,7.4c-0.28,0-0.53-0.04-0.76-0.13C8.29,7.21,8.14,7.09,8.04,6.91c-0.1-0.14-0.19-0.33-0.26-0.57
		C7.73,6.11,7.7,5.77,7.7,5.3L7.71,3.93z M8.75,6c0,0.14,0.05,0.26,0.15,0.36C9,6.46,9.12,6.52,9.26,6.52
		c0.13,0,0.26-0.05,0.36-0.15C9.73,6.26,9.78,6.14,9.78,6V3.25c0-0.15-0.05-0.28-0.16-0.38C9.52,2.75,9.4,2.7,9.27,2.7
		c-0.14,0-0.26,0.05-0.36,0.16C8.8,2.97,8.75,3.09,8.75,3.25V6z M12.54,15.63v-2.6c0-0.5-0.18-0.85-0.53-1.06
		c-0.12-0.07-0.26-0.1-0.41-0.1c-0.28,0-0.6,0.13-0.96,0.39v-1.95H9.47v6.71l0.96-0.03l0.07-0.42c0.31,0.26,0.6,0.42,0.84,0.48
		c0.25,0.06,0.46,0.03,0.63-0.07c0.17-0.1,0.31-0.28,0.4-0.52C12.49,16.22,12.54,15.94,12.54,15.63z M11.13,12.51
		c0.14,0,0.25,0.04,0.36,0.12c0.1,0.08,0.16,0.17,0.16,0.27v2.94c0,0.1-0.05,0.19-0.16,0.26c-0.11,0.08-0.23,0.12-0.36,0.12
		c-0.14,0-0.26-0.04-0.36-0.12c-0.1-0.08-0.15-0.16-0.15-0.26V12.9c0-0.1,0.05-0.19,0.15-0.27C10.87,12.55,10.99,12.51,11.13,12.51z
		 M11.67,6.86c-0.03-0.07-0.05-0.14-0.06-0.21c-0.01-0.07-0.02-0.14-0.04-0.21c-0.02-0.09-0.02-0.2-0.02-0.34V5.54V2.06h1.09v4.03
		c0,0.1,0.04,0.19,0.11,0.27c0.08,0.07,0.18,0.11,0.31,0.11c0.12,0,0.22-0.04,0.3-0.11c0.09-0.08,0.13-0.16,0.13-0.27V2.06h1.01
		v5.17h-1.29l0.02-0.42C13.11,6.98,13,7.11,12.89,7.2c-0.14,0.08-0.28,0.13-0.44,0.13c-0.19,0-0.35-0.04-0.48-0.13
		C11.85,7.13,11.76,7.01,11.67,6.86z M16.21,15.3h-0.87v0.13v0.44c0,0.14-0.05,0.24-0.15,0.32c-0.1,0.08-0.21,0.11-0.35,0.11h-0.18
		c-0.13,0-0.24-0.04-0.33-0.11c-0.09-0.08-0.14-0.18-0.14-0.32v-0.05v-0.49v-0.66h2.02v-0.7c0-0.26,0-0.51-0.01-0.75
		c-0.01-0.24-0.03-0.43-0.06-0.56c-0.03-0.23-0.14-0.41-0.31-0.55c-0.17-0.14-0.37-0.23-0.61-0.28c-0.23-0.05-0.47-0.06-0.71-0.03
		c-0.24,0.03-0.45,0.11-0.63,0.24c-0.23,0.15-0.39,0.36-0.49,0.62c-0.1,0.26-0.15,0.62-0.15,1.09v1.56c0,0.66,0.18,1.13,0.52,1.41
		c0.32,0.26,0.66,0.39,1.01,0.39c0.03,0,0.07,0,0.1,0c0.4-0.02,0.75-0.19,1.05-0.51c0.23-0.23,0.34-0.53,0.34-0.9
		C16.25,15.58,16.24,15.44,16.21,15.3z M15.31,13.82H14.2l0.02-0.62c0-0.14,0.05-0.25,0.15-0.34c0.1-0.09,0.22-0.13,0.37-0.13h0.05
		c0.15,0,0.28,0.04,0.39,0.13c0.1,0.09,0.16,0.2,0.16,0.34L15.31,13.82z"/>
</g>
</svg>
